<svg width="24" height="24" viewBox="0 0 24 24" fill="none" xmlns="http://www.w3.org/2000/svg">
<g clip-path="url(#clip0_214_19)">
<path opacity="0.4" d="M7.37 22H16.62C19.31 22 21.49 19.82 21.49 17.13V8.37C21.49 5.68 19.31 3.5 16.62 3.5H7.37C4.68 3.5 2.5 5.68 2.5 8.37V17.12C2.5 19.82 4.68 22 7.37 22Z" fill="white"/>
<path d="M4.50568 16V10.1818H6.80114C7.24242 10.1818 7.61837 10.2661 7.92898 10.4347C8.23958 10.6013 8.47633 10.8333 8.6392 11.1307C8.80398 11.4261 8.88636 11.767 8.88636 12.1534C8.88636 12.5398 8.80303 12.8807 8.63636 13.1761C8.4697 13.4716 8.22822 13.7017 7.91193 13.8665C7.59754 14.0312 7.21686 14.1136 6.76989 14.1136H5.30682V13.1278H6.57102C6.80777 13.1278 7.00284 13.0871 7.15625 13.0057C7.31155 12.9223 7.42708 12.8078 7.50284 12.6619C7.58049 12.5142 7.61932 12.3447 7.61932 12.1534C7.61932 11.9602 7.58049 11.7917 7.50284 11.6477C7.42708 11.5019 7.31155 11.3892 7.15625 11.3097C7.00095 11.2282 6.80398 11.1875 6.56534 11.1875H5.7358V16H4.50568ZM11.7479 16H9.68537V10.1818H11.7649C12.3501 10.1818 12.8539 10.2983 13.2763 10.5312C13.6986 10.7623 14.0234 11.0947 14.2507 11.5284C14.4799 11.9621 14.5945 12.4811 14.5945 13.0852C14.5945 13.6913 14.4799 14.2121 14.2507 14.6477C14.0234 15.0833 13.6967 15.4176 13.2706 15.6506C12.8464 15.8835 12.3388 16 11.7479 16ZM10.9155 14.946H11.6967C12.0604 14.946 12.3662 14.8816 12.6143 14.7528C12.8643 14.6222 13.0518 14.4205 13.1768 14.1477C13.3037 13.8731 13.3672 13.5189 13.3672 13.0852C13.3672 12.6553 13.3037 12.304 13.1768 12.0312C13.0518 11.7585 12.8653 11.5578 12.6172 11.429C12.3691 11.3002 12.0632 11.2358 11.6996 11.2358H10.9155V14.946ZM15.5057 16V10.1818H19.358V11.196H16.7358V12.5824H19.1023V13.5966H16.7358V16H15.5057Z" fill="white"/>
<g filter="url(#filter0_d_214_19)">
<mask id="mask0_214_19" style="mask-type:alpha" maskUnits="userSpaceOnUse" x="2" y="3" width="20" height="19">
<path d="M7.37 22H16.62C19.31 22 21.49 19.82 21.49 17.13V8.37C21.49 5.68 19.31 3.5 16.62 3.5H7.37C4.68 3.5 2.5 5.68 2.5 8.37V17.12C2.5 19.82 4.68 22 7.37 22Z" fill="white"/>
</mask>
<g mask="url(#mask0_214_19)">
<g filter="url(#filter1_d_214_19)">
<path d="M17 6.5V3C18.2 3 22 5.5 21.5 7.5H18C17.4477 7.5 17 7.05228 17 6.5Z" fill="white"/>
</g>
</g>
</g>
</g>
<defs>
<filter id="filter0_d_214_19" x="13" y="3.5" width="12.49" height="12" filterUnits="userSpaceOnUse" color-interpolation-filters="sRGB">
<feFlood flood-opacity="0" result="BackgroundImageFix"/>
<feColorMatrix in="SourceAlpha" type="matrix" values="0 0 0 0 0 0 0 0 0 0 0 0 0 0 0 0 0 0 127 0" result="hardAlpha"/>
<feOffset dy="4"/>
<feGaussianBlur stdDeviation="2"/>
<feComposite in2="hardAlpha" operator="out"/>
<feColorMatrix type="matrix" values="0 0 0 0 0 0 0 0 0 0 0 0 0 0 0 0 0 0 0.25 0"/>
<feBlend mode="normal" in2="BackgroundImageFix" result="effect1_dropShadow_214_19"/>
<feBlend mode="normal" in="SourceGraphic" in2="effect1_dropShadow_214_19" result="shape"/>
</filter>
<filter id="filter1_d_214_19" x="13.5" y="3" width="11.5452" height="303" filterUnits="userSpaceOnUse" color-interpolation-filters="sRGB">
<feFlood flood-opacity="0" result="BackgroundImageFix"/>
<feColorMatrix in="SourceAlpha" type="matrix" values="0 0 0 0 0 0 0 0 0 0 0 0 0 0 0 0 0 0 127 0" result="hardAlpha"/>
<feOffset dy="295"/>
<feGaussianBlur stdDeviation="1.75"/>
<feComposite in2="hardAlpha" operator="out"/>
<feColorMatrix type="matrix" values="0 0 0 0 0 0 0 0 0 0 0 0 0 0 0 0 0 0 1 0"/>
<feBlend mode="normal" in2="BackgroundImageFix" result="effect1_dropShadow_214_19"/>
<feBlend mode="normal" in="SourceGraphic" in2="effect1_dropShadow_214_19" result="shape"/>
</filter>
<clipPath id="clip0_214_19">
<rect width="24" height="24" fill="white"/>
</clipPath>
</defs>
</svg>
